# xmcd
#
# Track frame offsets:
#	150
#	19582
#	39925
#	57762
#	71336
#	88978
#	108807
#	131850
#	150264
#	167580
#	186979
#
# Disc length: 2678 seconds
# Revision: 0
# Processed by: cddbd v1.5.2PL0 Copyright (c) Steve Scherf et al.
# Submitted via: dBpowerAMP V12.0
#
DISCID=830a740b
DTITLE=Robb Moss - Sometimes we Win
DYEAR=2012
DGENRE=Folk
TTITLE0=Fool's Gold
TTITLE1=I Will Never Sleep
TTITLE2=Can't Stop Leaving You
TTITLE3=Space Migration Blues
TTITLE4=The Flower
TTITLE5=Right Outta Nowhere
TTITLE6=Road to Nowhere
TTITLE7=Do You Ever Think of me
TTITLE8=Keep on Riding
TTITLE9=When Someone Goes Away
TTITLE10=Salt Water And Stone
EXTD=
EXTT0=
EXTT1=
EXTT2=
EXTT3=
EXTT4=
EXTT5=
EXTT6=
EXTT7=
EXTT8=
EXTT9=
EXTT10=
PLAYORDER=
